<svg width="24" height="16" viewBox="0 0 24 16" fill="#CD5C5C" xmlns="http://www.w3.org/2000/svg">
<path d="M9.185 8.628c.81.031 1.242.12 1.493.285.303.204.393.437.449.592.403 1.116.923 4.67.949 4.844.026-.173.544-3.728.946-4.844.06-.155.147-.388.452-.592.249-.166.682-.254 1.493-.285h8.864c.092 0 .169.078.169.171a.17.17 0 0 1-.077.14L15.47 15.24a.172.172 0 0 1-.1.034H6.508a.167.167 0 0 1-.167-.168c0-.054.026-.103.064-.134l3.393-2.523H.886a.168.168 0 0 1-.17-.168c0-.057.028-.109.072-.14l4.663-3.463a.175.175 0 0 1 .118-.05h3.616ZM17.497.75c.093 0 .167.075.167.17a.168.168 0 0 1-.067.135l-3.395 2.52h8.923c.092 0 .166.075.166.168a.177.177 0 0 1-.069.14L18.53 7.365a.18.18 0 0 1-.098.028h-3.614c-.81-.028-1.244-.116-1.493-.282a1.098 1.098 0 0 1-.448-.592c-.406-1.116-.924-4.67-.95-4.844-.025.174-.546 3.728-.948 4.844a1.098 1.098 0 0 1-.45.592c-.25.166-.682.254-1.492.282l-8.87.003A.167.167 0 0 1 0 7.228c0-.052.02-.096.059-.127l.27-.202L8.53.786A.162.162 0 0 1 8.636.75h8.861Z" fill-rule="evenodd"></path>
</svg>
